<?xml version="1.0" encoding="UTF-8"?>
<svg width="7px" height="19px" viewBox="0 0 7 19" version="1.1" xmlns="http://www.w3.org/2000/svg" xmlns:xlink="http://www.w3.org/1999/xlink">
    <!-- Generator: Sketch 61.2 (89653) - https://sketch.com -->
    <title>Group</title>
    <desc>Created with Sketch.</desc>
    <g id="✏️-Courses" stroke="none" stroke-width="1" fill="none" fill-rule="evenodd">
        <g id="Artboard" transform="translate(-118.000000, -381.000000)" fill="#FFFFFF">
            <g id="Course-Card-/-Extramural-Courses-/-1" transform="translate(75.000000, 77.000000)">
                <g id="Group-3">
                    <g id="Group-14" transform="translate(15.000000, 201.000000)">
                        <g id="Group-10">
                            <g id="Group-5" transform="translate(11.000000, 92.000000)">
                                <g id="Group" transform="translate(17.000000, 11.000000)">
                                    <circle id="Oval" cx="4.26925168" cy="2" r="2"></circle>
                                    <path d="M0.269251682,18 C-0.461496636,17 3,9.5 3,8.5 C3,7.5 2,7.5 1,8.5 C4.31876757e-13,9.5 -7.06656955e-14,8.5 0.5,7.5 C1,6.5 3.5,4.5 5,5.5 C6.5,6.5 2.76925168,14.5 3.26925168,15 C3.76925168,15.5 4.5,15 5,14.5 C5.5,14 6.5,14.5 5,16 C3.5,17.5 1,19 0.269251682,18 Z" id="Path-3"></path>
                                </g>
                            </g>
                        </g>
                    </g>
                </g>
            </g>
        </g>
    </g>
</svg>