<?xml version="1.0" encoding="UTF-8"?>
<svg width="73px" height="54px" viewBox="0 0 73 54" version="1.1" xmlns="http://www.w3.org/2000/svg" xmlns:xlink="http://www.w3.org/1999/xlink">
    <!-- Generator: Sketch 61.2 (89653) - https://sketch.com -->
    <title>Combined Shape@3x</title>
    <desc>Created with Sketch.</desc>
    <g id="Guides" stroke="none" stroke-width="1" fill="none" fill-rule="evenodd">
        <g id="Contact-Us-Page-Copy-2" transform="translate(-874.000000, -362.000000)" fill="#FFFFFF">
            <g id="Group-4" transform="translate(626.000000, 259.000000)">
                <g id="Group-3" transform="translate(248.000000, 103.700002)">
                    <path d="M28.2336013,27.2252342 L28.9283309,27.8185267 C33.3039246,31.5532504 39.6823807,31.5532504 44.0579744,27.8185267 L44.7504118,27.2254587 C48.0746597,30.7166751 55.9881755,39.0289854 68.4909591,52.1623896 C67.53513,52.5232155 66.3021899,52.7123288 63.9317001,52.7123288 L9.05460523,52.7123288 C6.68411547,52.7123288 5.45117531,52.5232155 4.49534627,52.1623896 C14.8133618,41.3232627 22.7261135,33.0108776 28.2336013,27.2252342 Z M72.9863054,9.21466088 L72.9863054,43.4976679 C72.9863054,46.685052 72.6619022,47.8514974 72.0525336,49.0167145 C59.2914341,35.6124518 51.396337,27.3200083 48.3672425,24.1393842 L72.1338729,3.85473202 C72.690728,4.97106687 72.9863054,6.17218259 72.9863054,9.21466088 Z M0.93377183,49.0167145 C0.324403143,47.8514974 0,46.685052 0,43.4976679 L0,9.21466088 C0,6.17127438 0.29575389,4.97034995 0.852931204,3.85373234 L24.6166717,24.13771 C19.181488,29.8473976 11.287188,38.1403991 0.93377183,49.0167145 Z M63.9317001,0 C66.4106588,0 67.645582,0.20681609 68.6205114,0.600548156 L41.0320457,24.1469139 C38.4066895,26.3877482 34.5796159,26.3877482 31.9542596,24.1469139 L4.36579397,0.600548156 C5.34072333,0.20681609 6.57564658,0 9.05460523,0 L63.9317001,0 Z" id="Combined-Shape"></path>
                </g>
            </g>
        </g>
    </g>
</svg>